# xmcd
#
# Track frame offsets:
#       150
#       21065
#       38057
#       59097
#       77247
#       99425
#       112227
#       125295
#       145412
#       162575
#       182032
#       196995
#       213442
#       222602
#       240127
#       252595
#       267562
#       279515
#
# Disc length: 3983 seconds
#
# Revision: 2
# Processed by: cddbd v1.4PL0 Copyright (c) Steve Scherf et al.
# Submitted via: MusiCat 1.1
#
DISCID=180f8d12
DTITLE=Various Artists 2 - Blue Highways - the Ultimate Americana Fest 2003
DYEAR=2003
DGENRE=
TTITLE0=Slobberbone - Springfield, Il
TTITLE1=Billy Joe Shaver - Freedom's Child
TTITLE2=Mary Gauthier - Sugar Cane
TTITLE3=Florence Dore - Christmas
TTITLE4=Beaver Nelson - Mile Markers
TTITLE5=Bobby Bear Jr. - The Monk At The Disco
TTITLE6=Rod Picott - Angels And Acrobats
TTITLE7=Kathleen Edwards - Hockey Skates
TTITLE8=Laura Cantrell - Don't Break The Heart
TTITLE9=Caroline Herring - Devil Made A Mess
TTITLE10=Two Tons Of Steel - One More Time
TTITLE11=Porter Hall Tn - Angel Without Wings
TTITLE12=The Weary Boys - Worried Man Blues
TTITLE13=The Domino Kings - Either Way
TTITLE14=Greg Trooper - Lovin' Never Came That Easy
TTITLE15=Gurf Morlix - Fishin'In The Muddy
TTITLE16=Buddy Miller - Hole In My Head
TTITLE17=Greg Trooper - These Sunday Nights
EXTD=2003\nWarner Bros Music\n\nBy Henk Overeem MMM NL
EXTT0=
EXTT1=
EXTT2=
EXTT3=
EXTT4=
EXTT5=
EXTT6=
EXTT7=
EXTT8=
EXTT9=
EXTT10=
EXTT11=
EXTT12=
EXTT13=
EXTT14=
EXTT15=
EXTT16=
EXTT17=bonus track
PLAYORDER=
